<svg id="SvgjsSvg1044" width="360" height="275" xmlns="http://www.w3.org/2000/svg" version="1.1" xmlns:xlink="http://www.w3.org/1999/xlink" xmlns:svgjs="http://svgjs.com/svgjs"><defs id="SvgjsDefs1045"><svg id="a1491246067290" data-name="Layer 1" xmlns="http://www.w3.org/2000/svg" width="120px" viewBox="0 0 50.61000061035156 49.543997558593745" style="undefined; fill:inherit;">
  <title style="undefined; fill:inherit;">assets</title>
  <path d="M375.36,800a24.82,24.82,0,0,1-24.65-22.25l0.44,0a24.34,24.34,0,0,0,48.43,0l0.44,0A24.82,24.82,0,0,1,375.36,800Z" transform="translate(-350.06 -750.44)" style="undefined; fill:inherit;"></path>
  <path d="M351.13,772.75l-0.4,0a24.77,24.77,0,0,1,49.27,0l-0.4,0A24.36,24.36,0,0,0,351.13,772.75Z" transform="translate(-350.06 -750.44)" style="undefined; fill:inherit;"></path>
  <circle cx="0.71" cy="24.76" r="0.71" style="undefined; fill:inherit;"></circle>
  <circle cx="49.9" cy="24.76" r="0.71" style="undefined; fill:inherit;"></circle>
</svg><!--?xml version="1.0"?-->
<svg width="659.91111111111px" height="274.66666666667px" id="t1491246067290"><path fill="#19a3b1" d="M24.914342222222,47.546488888888c1.0258764444444-0.1920744,1.8195768888889-0.75967111111111,2.335032-1.6240995555555c0.59779502222222-1.0061893333333,1.1045688888889-2.0672462222222,1.4-3.2152026666667c0.21953991111111-0.850696,0.43859386666667-1.701392,0.64944444444444-2.5520817777778c0.58406257777778-2.3645688888889,0.67235466666666-3.1100782222222,0.63528888888889-5.5066666666666c-0.010998275555556-0.681464-0.043020817777778-1.3674888888889-0.085555555555555-2.0489591111111c-0.018289911111111-0.2881424-0.054869795555555-0.59001724444444-0.1404256-0.86442844444444c-0.26025191111111-0.83696355555555-0.52366346666666-1.6784817777778-0.83100888888889-2.5017128888889c-0.45232631111111-1.2119955555556-1.1768151111111-2.2410328888889-2.1825751111111-3.064264c-0.62751111111111-0.51679662222222-1.3368693333333-0.79576622222222-2.1624026666667-0.72716c-0.096068,0.0091753511111111-0.19164942222222,0.027465262222222-0.2877168,0.041197893333333c-0.33663217777778,0.050312515555555-0.71762133333333,0.45281226666667-0.76380266666666,0.79126755555555c-0.1880032,1.3583795555556-0.16102426666667,2.7304853333333-0.071397511111111,4.0934195555555c0.12164942222222,1.8523244444444,0.13762995555556,3.7046551111111,0.055781226666666,5.5615342222222c-0.03475696,0.78208977777777-0.037491315555555,1.5596248888889,0.1290016,2.3325431111111c0.03980032,0.18751724444444,0.037977457777778,0.39332471111111,0.00048611111111111,0.58084195555555c-0.13902808888889,0.68602488888889-0.050737866666666,1.3583795555556,0.11940133333333,2.0261111111111c0.16965262222222,0.66773155555555,0.247856,1.3400862222222,0.19523466666667,2.030728c-0.036579884444444,0.48477457777778-0.0068663466666666,0.97872444444444-0.0068663466666666,1.5870337777778c-0.081423377777777,0.65862222222222,0.0630728,1.4361573333333,0.0777168,2.2182471111111c0.0018229182222222,0.096068,0.040711813333333,0.19213537777778,0.049401022222222,0.28820337777778c0.032022542222222,0.33845466666667,0.51223946666666,0.62659644444444,0.884968,0.55343742222222z M36.826071111111,72.966189333333c0.18022542222222,0.79582222222222-0.42504311111111,1.8431528888889-1.2281608888889,2.0947111111111c-0.17609386666667,0.059427075555555-0.39514782222222,0.068602488888889-0.57075511111111,0.018289911111111c-0.57172764444444-0.16466986666667-1.07072-0.48027777777778-1.4672684444444-0.91935822222222c-0.25976533333333-0.2881424-0.47748275555555-0.635712-0.54061653333333-1.0244764444444c-0.15549457777778-0.96960888888889-0.45961813333333-1.8934657777778-0.77018044444444-2.8219333333333c-0.31007822222222-0.92385688888889-0.57853288888889-1.86144-0.88083022222222-2.7899137777778c-0.27167528888889-0.83240266666666-0.41161431111111-1.701392-0.75553955555555-2.5200622222222c-0.1884288-0.44363697777778-0.30138888888889-0.92385688888889-0.51454853333333-1.3629342222222c-0.71895911111111-1.4955795555556-1.3866906666667-3.0140133333333-2.1706097777778-4.4775671111111c-0.55434897777778-1.0336542222222-1.059296-2.0856017777778-1.5788888888889-3.1375431111111c-0.43130204444444-0.86898311111111-0.97052355555555-1.6876533333333-1.4686-2.5246168888889c-0.047578097777778-0.077777777777778-0.13629342222222-0.13720497777778-0.2177168-0.1920744c-0.17427075555555-0.1143576-0.35996551111111-0.16466986666667-0.51503448888889-0.096068c-0.0704256,0.032022542222222-0.11660568888889,0.16011271111111-0.13854151111111,0.25156257777778c-0.044357662222222,0.18751724444444-0.084583644444444,0.37959226666667-0.091449866666666,0.57166666666666c-0.023758684444444,0.681464-0.04387152,1.3674888888889-0.046180586666666,2.0489591111111c-0.0054687484444444,1.9529502222222-0.0018229182222222,3.9013457777778-0.0018229182222222,5.854296c-0.048489591111111,1.9529502222222-0.020112835555555,3.9059004444444-0.221788,5.854296c-0.081423377777777,0.78208977777777,0.21085057777778,1.5413377777778,0.12395848888889,2.3326053333333c-0.074557155555555,0.67690933333333-0.29136302222222,1.3400862222222-0.24518231111111,2.030728c0.019687484444444,0.29269955555555,0.090598666666666,0.58539911111111,0.066840355555555,0.873544c-0.032447893333333,0.39788186666667-0.21358524444444,0.74545333333333-0.55203991111111,0.98327911111111c-0.1587152,0.1143576-0.32611973333333,0.21498275555555-0.49625893333333,0.31105013333333c-0.46466124444444,0.25156257777778-0.94032088888889,0.23783013333333-1.3940453333333-0.013732631111111c-0.25381066666667-0.13720497777778-0.50263857777778-0.31098977777778-0.70479733333333-0.51223946666666c-0.27854151111111-0.28358524444444-0.43677075555555-0.64488977777778-0.43446168888889-1.0565022222222c0.000911456-0.1920744-0.010998275555556-0.39332471111111,0.036093742222222-0.58084195555555c0.21905395555555-0.85986755555555,0.27623244444444-1.7288568888889,0.29039048888889-2.6115724444444c0.046180586666666-2.92712,0.11156257777778-5.8587946666666,0.16734355555555-8.7859022222222c0.050737866666666-2.6344204444444,0.099652622222222-5.2733955555555,0.14631928888889-7.9078222222222c0.021024328888889-1.1708604444444,0.01737848-2.3417208888889,0.15045146666667-3.5125751111111c0.0997136-0.873544,0.095581422222222-1.7562595555555,0.026067688888889-2.6344204444444c-0.30734355555555-3.8967288888889-0.36130204444444-7.798-0.34027777777778-11.703937777778c0.010998275555556-1.9575111111111,0.013732631111111-3.9059004444444-0.35212675555555-5.8405635555555c-0.036154533333333-0.1920744-0.05262152-0.38876755555555-0.055842017777778-0.58084195555555c-0.025156257777778-1.5641857777778-0.047578097777778-3.1238106666667-0.060824648888889-4.6834355555555c-0.0018229182222222-0.1920744,0.03475696-0.39332471111111,0.094669866666666-0.5762848c0.059913217777778-0.17834195555555,0.14267368888889-0.3658592,0.26523466666667-0.51223946666666c0.32520817777778-0.37503448888889,0.73773155555555-0.65399911111111,1.2184355555556-0.76835733333333c0.6636-0.15549457777778,1.3382008888889-0.27440995555555,2.0297573333333-0.20580746666667c0.48617208888889,0.045755235555555,0.97374044444444,0.073220622222222,1.4608222222222,0.10524328888889c0.49072924444444,0.032022542222222,0.95314488888889,0.1737848,1.422848,0.31554693333333c1.2600622222222,0.37503448888889,2.2854533333333,1.0747893333333,3.1256337777778,2.0718693333333c0.18891475555555,0.22409706666667,0.38925351111111,0.43907982222222,0.5909288,0.65406133333333c0.95587644444444,1.0016346666667,1.613584,2.1953368888889,2.1848275555555,3.4439128888889c0.12073786666667,0.26529502222222,0.2144968,0.54426213333333,0.28492177777778,0.827848c0.21315964444444,0.850696,0.43774328888889,1.701392,0.60241315555555,2.5658142222222c0.14498275555556,0.75462488888889,0.49212675555555,1.4955795555556,0.28583333333333,2.2959626666667c0.056267368888889,0.77753511111111,0.13811653333333,1.5550702222222-0.065381866666666,2.3279884444444c-0.0736456,0.28358524444444-0.055781226666666,0.58546008888889-0.085981155555555,0.8736c-0.080512444444444,0.77753511111111-0.12353288888889,1.5641857777778-0.25709226666667,2.3279884444444c-0.16691857777778,0.96043111111111-0.39010408888889,1.9163137777778-0.62471111111111,2.8630746666667c-0.28218773333333,1.1388346666667-0.71166666666666,2.2273626666667-1.1123466666667,3.3296168888889c-0.443212,1.2211733333333-1.1827697777778,2.2319173333333-2.0919795555555,3.1420417777778c-0.48343742222222,0.48477457777778-1.0926533333333,0.82323111111111-1.520736,1.3583173333333c-0.11162355555556,0.14176213333333-0.20769093333333,0.37503448888889-0.17433173333333,0.53508684444444c0.1774304,0.86898311111111,0.51722222222222,1.6876533333333,0.95447644444444,2.4469013333333c1.3144444444444,2.2867911111111,2.4153048888889,4.6833795555555,3.6433413333333,7.0159288888889c0.86807466666666,1.6465182222222,1.5390293333333,3.3707582222222,2.1088728888889,5.1361893333333c0.29956577777778,0.92847377777777,0.54468773333333,1.8752346666667,0.86436622222222,2.7945306666667c0.4472832,1.2897733333333,0.81223022222222,2.6069555555555,1.3660951111111,3.8601484444444c0.11660568888889,0.26067688888889,0.17196168888889,0.55337644444444,0.23600702222222,0.83696355555555z M52.831617777778,73.574984c0.10153671111111,0.26529502222222-0.19456577777778,0.88302044444444-0.44703991111111,0.98820088888889c-0.1774304,0.073159644444444-0.34210088888889,0.18289911111111-0.52548595555555,0.233212c-0.75967111111111,0.20580746666667-1.5362915555556,0.26523466666667-2.3220337777778,0.21036462222222c-0.97374044444444-0.068602488888889-1.9474808888889-0.14176213333333-2.4679884444444-0.17834195555555c-1.4320195555556,0-2.4108062222222-0.036579884444444-3.3845466666667,0.013732631111111c-0.92434222222222,0.050312515555555-1.7320115555555-0.23783013333333-2.5063297777778-0.64944444444444c-0.347144-0.18751724444444-0.57677075555555-0.50312515555555-0.68195555555555-0.88733244444444c-0.049826373333333-0.17834195555555-0.11660568888889-0.36130204444444-0.12669253333333-0.54881928888889c-0.036579884444444-0.65862222222222-0.080937422222222-1.3172382222222,0.031111111111111-1.9758604444444c0.063558755555555-0.37047733333333,0.1220744-0.74550933333333,0.12158844444444-1.1205475555556c-0.0032204853333333-1.8889048888889,0.0630728-3.7732551111111-0.0082638577777777-5.6576053333333c-0.038888888888889-1.0336542222222-0.12122382222222-2.0626915555555-0.037552106666667-3.1054613333333c0.067204977777778-0.84151822222222-0.044418391111111-1.6922142222222-0.10524328888889-2.5383493333333c-0.10931448888889-1.5138728888889-0.058576373333333-3.0140133333333,0.151788-4.5141475555555c0.13033875555556-0.93302844444444,0.15549457777778-1.8843502222222,0.1591408-2.8264942222222c0.018289911111111-4.52788,0.021510408888889-9.05576,0.010998275555556-13.583671111111c-0.0032204853333333-1.3217991111111-0.12444444444444-2.6344204444444-0.29962675555555-3.9470417777778c-0.27489591111111-2.0626915555555-0.29592017777778-4.1345546666667,0.097404533333333-6.1972462222222c0.10566826666667-0.55343742222222,0.14960088888889-1.1251644444444,0.19262133333333-1.6877155555555c0.085981155555555-1.13428,0.35401022222222-2.2365342222222,0.64166666666666-3.3296168888889c0.069088444444444-0.26067688888889,0.27629342222222-0.48933173333333,0.5722136-0.60368933333333c0.36312515555555-0.14176213333333,0.72582222222222-0.306432,1.1274106666667-0.23783013333333c1.4539591111111,0.25611973333333,2.9175191111111,0.21036462222222,4.3819875555555,0.15549457777778c0.39010408888889-0.018289911111111,0.779296-0.064045333333333,1.1689751111111-0.073220622222222c1.2801724444444-0.027465262222222,1.5426755555556,0.45737004444444,1.7187644444444,1.4818471111111c0.015555555555555,0.091449866666666,0.026067688888889,0.18751724444444,0.041623244444444,0.27896711111111c0.050312515555555,0.29725671111111-0.23600702222222,0.75918577777778-0.57081608888889,0.88727644444444c-0.27118933333333,0.10062515555556-0.54833333333333,0.19669253333333-0.83191733333333,0.26073786666667c-0.76611111111111,0.16922764444444-1.551424,0.16005235555555-2.3302968888889,0.21036462222222c-0.387856,0.027465262222222-0.77795822222222,0.077777777777778-1.1566426666667,0.16011271111111c-0.5022136,0.10973946666667-0.90197955555555,0.41161431111111-1.0844524444444,0.86898311111111c-0.35170115555555,0.873544-0.70935822222222,1.7562595555555-0.77109511111111,2.712136c-0.048914942222222,0.75462488888889-0.11569475555556,1.5046951111111-0.19572062222222,2.2547653333333c-0.091024266666666,0.850696-0.12809004444444,1.701392,0.011423626666667,2.5429102222222c0.15598115555556,0.93758933333333,0.012395848888889,1.8889048888889,0.16375893333333,2.8219333333333c0.13720497777778,0.84151822222222,0.12031226666667,1.6876533333333,0.1033592,2.5383493333333c-0.0018229182222222,0.096068-0.010026053333333,0.19213537777778,0.0046180586666667,0.28358524444444c0.19620657777778,1.2211733333333,0.14546871111111,2.4423466666667,0.034331608888889,3.6635137777778c-0.016953128888889,0.18751724444444,0.026979182222222,0.37503448888889,0.035182311111111,0.56255235555555c0.014157982222222,0.32016506666667,0.40839431111111,0.74550933333333,0.73177688888889,0.78208977777777c0.19256097777778,0.022847253333333,0.38463537777778,0.068602488888889,0.57719635555555,0.068602488888889c1.174992,0.0045572924444444,2.3366746666667-0.077777777777778,3.4746008888889-0.40705715555555c0.95363022222222-0.27896711111111,1.9296168888889-0.21492177777778,2.9001404444444-0.054869795555555c0.31834195555555,0.054869795555555,0.694288,0.44819413333333,0.68511022222222,0.80493777777777c-0.010086782222222,0.38420977777778,0.080937422222222,0.74550933333333,0.15227457777778,1.1159866666667c0.061736142222222,0.32472222222222-0.23418391111111,0.81411555555555-0.53514782222222,0.919296c-1.0075893333333,0.3658592-2.0101324444444,0.704312-3.1196791111111,0.67684711111111c-0.87949866666666-0.022847253333333-1.7448355555555,0.14638026666667-2.5923084444444,0.4025c-0.55617208888889,0.16466986666667-1.1365884444444,0.25611973333333-1.7005395555555,0.39788186666667c-0.31469635555555,0.082334933333333-0.42218773333333,0.36130204444444-0.53836782222222,0.61742177777778c-0.038402808888889,0.086892088888889-0.061736142222222,0.18296008888889-0.064470311111111,0.27440995555555c-0.034331608888889,1.1296631111111-0.20720497777778,2.2547653333333-0.047578097777778,3.3890453333333c0.092847377777777,0.65399911111111,0.087378666666666,1.317176-0.013246551111111,1.9711813333333c-0.17244764444444,1.1251022222222-0.18113697777778,2.2593822222222-0.16880204444444,3.3890453333333c0.029288186666667,2.7350462222222,0.074132177777778,5.4700862222222,0.31238728888889,8.1959733333333c0.091024266666666,1.0382088888889,0.12760408888889,2.0626915555555-0.085981155555555,3.0963457777778c-0.13677937777778,0.65862222222222-0.0082638577777777,1.3126213333333,0.288568,1.9300462222222c0.082334933333333,0.16922764444444,0.13082471111111,0.36130204444444,0.24560791111111,0.50768231111111c0.11253448888889,0.14638026666667,0.27398435555555,0.27447031111111,0.44230044444444,0.35224808888889c0.17062515555555,0.077777777777778,0.37600702222222,0.11891475555556,0.56583333333333,0.11891475555556c1.9524648888889-0.0091753511111111,3.903592,0.12347253333333,5.8569715555555,0.045694444444444c0.19164942222222-0.0091753511111111,0.39654533333333,0.018289911111111,0.57537324444444,0.0777168c0.17700542222222,0.064045333333333,0.40754311111111,0.15549457777778,0.47845466666666,0.29725671111111c0.25338568888889,0.50768231111111,0.45876755555555,1.0382088888889,0.66323911111111,1.5641857777778z M69.516568888889,58.642079999999c0.064956888888889-0.39332471111111,0.013489591111111-0.77741066666666-0.037734355555555-1.1616204444444c-0.36039048888889-2.7075751111111-0.42668391111111-5.4288888888889-0.43124106666667-8.1547822222222c-0.0027343742222222-1.4543822222222-0.0777168-2.9133875555555-0.13440995555556-4.3723866666667c-0.05262152-1.3583795555556-0.15002586666667-2.7167528888889-0.17791697777778-4.0796871111111c-0.015555555555555-0.77753511111111,0.078203377777777-1.5550702222222,0.1033592-2.3279884444444c0.0091753511111111-0.29269955555555-0.032873244444444-0.58084195555555-0.0630728-0.873544c-0.0041319413333333-0.036579884444444-0.077777777777778-0.068602488888889-0.11891475555556-0.10062515555556c-0.047578097777778,0.082334933333333-0.10797733333333,0.16011271111111-0.14,0.24700542222222c-0.10062515555556,0.27440995555555-0.19073786666667,0.55337644444444-0.2844968,0.82778577777777c-0.015980906666667-0.0045572924444444-0.031961813333333-0.00911456-0.047517368888889-0.018289911111111c-0.14862835555556,0.4619272-0.30369795555555,0.92385688888889-0.44412355555555,1.3857822222222c-0.53697031111111,1.7654311111111-0.93576622222222,3.5674488888889-1.4548675555556,5.3419955555555c-0.95587644444444,3.2610168888889-1.9611573333333,6.50832-2.8891395555555,9.7784088888889c-0.23874106666667,0.84151822222222-0.50081608888889,1.6784817777778-0.73906933333333,2.52c-0.1330728,0.46648435555555-0.18338568888889,0.95125955555555-0.17469635555555,1.4406497777778c0.0059548595555555,0.35218773333333,0.35218773333333,0.75924177777778,0.70479733333333,0.77753511111111c0.387856,0.018289911111111,0.77613511111111,0.050312515555555,1.1630826666667,0.041137164444444c1.5632711111111-0.036579884444444,3.0872302222222-0.3475696,4.6120977777778-0.65856c0.2030728-0.041137164444444,0.52323786666666-0.42990453333333,0.55386302222222-0.61286462222222z M74.668071111111,73.506502222222c0.023333333333333,0.17834195555555-0.045269093333333,0.3886456-0.12347253333333,0.55787324444444c-0.16600702222222,0.3658592-0.43859386666667,0.66773155555555-0.80633777777777,0.81867022222222c-0.5799304,0.23327235555555-1.1598595555556,0.14638026666667-1.66572-0.21492177777778c-0.31694444444444-0.22865422222222-0.57355013333333-0.53508684444444-0.74733244444444-0.89183111111111c-0.17153671111111-0.35218773333333-0.32794284444444-0.71348977777778-0.28631928888889-1.1205475555556c0.059487866666666-0.58539911111111,0.10931448888889-1.1616826666667,0.028802106666667-1.7516986666667c-0.11891475555556-0.86898311111111-0.16874106666667-1.7516986666667-0.25016506666667-2.6298595555555c-0.045269093333333-0.48483493333333-0.032022542222222-0.98795822222222-0.15367208888889-1.4544444444444c-0.29774328888889-1.1433955555556-0.3475696-2.3188106666667-0.53235217777778-3.4759386666667c-0.049826373333333-0.31098977777778-0.50033013333333-0.65856-0.85160444444444-0.67229244444444c-1.2760408888889-0.054869795555555-2.5419955555555,0.086892088888889-3.7979262222222,0.26523466666667c-1.0651884444444,0.14638026666667-2.1317768888889,0.26529502222222-3.2011031111111,0.37503448888889c-0.39654533333333,0.041137164444444-0.75328711111111,0.24238728888889-0.88684711111111,0.65399911111111c-0.21036462222222,0.64944444444444-0.4358592,1.2988888888889-0.56394986666666,1.9712435555555c-0.18338568888889,0.95587644444444-0.36816826666667,1.9163137777778-0.56297733333333,2.8721902222222s-0.33474808888889,1.9209306666667-0.5954256,2.8676915555555c-0.1550696,0.56255235555555-0.17973946666667,1.157128-0.29683173333333,1.7334115555555c-0.058090293333333,0.28358524444444-0.16691857777778,0.56255235555555-0.29683173333333,0.82323111111111c-0.4875696,0.97878666666666-1.9223244444444,1.20288-2.7121982222222,0.27902808888889c-0.1847832-0.21498275555555-0.28680586666667-0.498568-0.3027864-0.805c-0.036154533333333-0.69064177777778,0.015555555555555-1.372112,0.18429662222222-2.0398435555555c0.67368622222222-2.6527075555555,1.1575511111111-5.3465564444444,1.7301884444444-8.0221244444444c0.26572062222222-1.2394604444444,0.47888026666666-2.4926533333333,0.815024-3.7138266666667c0.31098977777778-1.13428,0.51406257777778-2.2868471111111,0.82371644444444-3.4211271111111c0.43768231111111-1.6053208888889,0.94445244444444-3.1832391111111,1.4420497777778-4.765712c0.35170115555555-1.1205475555556,0.72078222222222-2.2273626666667,1.0047893333333-3.3661973333333c0.42625893333333-1.7059466666667,0.99428-3.3753128888889,1.427832-5.0766986666666c0.38463537777778-1.5138728888889,0.77109511111111-3.0277457777778,1.2183795555556-4.52788c0.33432311111111-1.1205475555556,0.56710951111111-2.2731146666667,0.78300444444444-3.425688c0.14498275555556-0.76835733333333,0.35170115555555-1.5184275555556,0.55933173333333-2.2730524444444c0.36312515555555-1.317176,0.68602488888889-2.6480906666667,1.0212595555556-3.9744444444444c0.071823111111111-0.28358524444444,0.15233493333333-0.56716986666666,0.17749137777778-0.85531288888889c0.067690933333333-0.78665066666666,0.23369795555555-1.5458924444444,0.40839431111111-2.3096951111111c0.15136302222222-0.66317688888889,0.18381066666667-1.3538186666667,0.27343742222222-2.030728c0.087378666666666-0.66317688888889,0.49394986666666-1.0290373333333,1.110032-1.2073786666667c0.1920744-0.054869795555555,0.38323786666667-0.073159644444444,0.57713537777778-0.013671902222222c0.27945306666667,0.086892088888889,0.5612152,0.16922764444444,0.83380266666666,0.27440995555555c0.27762995555555,0.10973946666667,0.50768231111111,0.29725671111111,0.67600088888889,0.539644c0.39605875555555,0.57172764444444,0.62155395555555,1.1983253333333,0.66086844444444,1.9072542222222c0.1733592,3.1283653333333,0.23691857777778,6.2567555555555,0.21036462222222,9.3851022222222c-0.013732631111111,1.8568853333333,0.015069475555555,3.7137644444444-0.093333333333333,5.5706497777778c-0.062222222222222,1.0702346666667-0.0073524266666666,2.1495848888889,0.021024328888889,3.2243742222222c0.013246551111111,0.48939208888889,0.047578097777778,0.98334133333333,0.14862835555556,1.4544444444444c0.20580746666667,0.96960888888889,0.21498275555555,1.9392177777778,0.21498275555555,2.9180044444444c0.000911456,2.053576,0.025156257777778,4.107152,0.054444444444444,6.160728c0.016892337777778,1.1754151111111,0.10925351111111,2.3417208888889,0.35030364444444,3.4988426666667c0.11982631111111,0.57172764444444,0.1774304,1.157128,0.25927937777778,1.7379662222222c0.055355875555555,0.38876755555555,0.15324648888889,0.76835733333333,0.32976533333333,1.1205475555556c0.13951404444444,0.27440995555555,0.17062515555555,0.56255235555555,0.10615422222222,0.84613511111111c-0.085981155555555,0.38420977777778-0.1994272,0.76380266666666-0.097890488888889,1.1525671111111c0.14862835555556,0.57172764444444,0.20167528888889,1.157128,0.26432311111111,1.7379662222222c0.05262152,0.48477457777778,0.0850696,0.98327911111111,0.22731768888889,1.4452106666667c0.3215016,1.0427697777778,0.38779502222222,2.1130044444444,0.4509288,3.1877937777778c0.028802106666667,0.48483493333333,0.052560791111111,0.97422577777777,0.044357662222222,1.4636222222222c-0.018776053333333,1.0839671111111,0.24694444444444,2.1313537777778,0.38737004444444,3.1970337777778z M94.537493333333,71.164663111111c0.25016506666667,0.41161431111111,0.44126755555555,0.86424177777777,0.62878666666666,1.3170577777778c0.12304693333333,0.29269955555555,0.016466986666667,0.5762848-0.18156257777778,0.80493777777777c-0.18982631111111,0.21953991111111-0.39198755555555,0.44363697777778-0.62981955555555,0.60368933333333c-0.81684711111111,0.54426213333333-1.7484817777778,0.85986755555555-2.6549537777778,1.2166124444444c-0.26711813333333,0.10518231111111-0.57081608888889,0.13264782222222-0.86078222222222,0.16011271111111c-0.98376444444444,0.082334933333333-1.9287084444444-0.045755235555555-2.8809386666667-0.35674488888889c-1.4201102222222-0.4619272-2.6842417777778-1.1525671111111-3.7933653333333-2.145024c-0.65539911111111-0.58539911111111-1.3103128888889-1.1707982222222-1.9606657777778-1.7608142222222c-0.361788-0.32927937777778-0.67417777777778-0.69975733333333-0.98012444444444-1.0839671111111c-1.1209706666667-1.4041315555556-1.7942337777778-3.0186302222222-2.1935137777778-4.742864c-0.32976533333333-1.4269795555556-0.61881928888889-2.8630746666667-0.66135377777778-4.3403671111111c-0.033845466666667-1.1708604444444-0.11982631111111-2.33716-0.18156257777778-3.5080204444444c-0.025642337777778-0.48939208888889-0.0077777777777777-0.98334133333333-0.080025866666666-1.46356c-0.29227457777778-1.9392177777778-0.25247413333333-3.8967288888889-0.28401022222222-5.6438728888889c-0.019687484444444-2.1587564444444-0.015555555555555-4.107152,0.2584288-6.0509306666666c0.10840293333333-0.77291822222222,0.084644-1.5595688888889,0.11210951111111-2.3416586666667c0.058090293333333-1.6602506666667,0.14455715555556-3.3158844444444,0.59870657777778-4.9303831111111c0.10475671111111-0.37047733333333,0.12073786666667-0.76835733333333,0.18065102222222-1.157128c0.029713537777778-0.1920744,0.044783013333333-0.38876755555555,0.10287324444444-0.5762848c0.67095466666666-2.1404693333333,1.2874648888889-4.3037866666667,2.4798355555555-6.2384622222222c1.1855013333333-1.9209306666667,2.5676373333333-3.6863617777778,4.2813617777778-5.1727697777778c0.59730906666666-0.51679662222222,1.2879502222222-0.88727644444444,2.0343742222222-1.1296631111111c0.55477457777778-0.17834195555555,1.1333653333333-0.29725671111111,1.7091697777778-0.39788186666667c0.28176213333333-0.050312515555555,0.58770817777778-0.036579884444444,0.87080622222222,0.018289911111111c0.67235466666666,0.11891475555556,1.3382631111111,0.27440995555555,2.0050862222222,0.42534737777778c0.57537324444444,0.13264782222222,1.1232791111111,0.35674488888889,1.6323004444444,0.64032888888889c0.61468773333333,0.34301244444444,1.0299457777778,0.86442844444444,1.2115102222222,1.5733573333333c0.076866222222222,0.30187484444444-0.16369795555555,0.82328711111111-0.49759546666666,0.96967111111111c-0.54881928888889,0.24700542222222-1.1323946666667,0.31105013333333-1.7150622222222,0.19669253333333c-0.66864622222222-0.13720497777778-1.32356-0.33845466666667-1.9894684444444-0.49394986666666c-0.48617208888889-0.10973946666667-0.96365422222222-0.050312515555555-1.4351804444444,0.12347253333333c-1.3236222222222,0.49394986666666-2.3778097777778,1.3538186666667-3.2261973333333,2.4515182222222c-0.71622133333333,0.92385688888889-1.3770897777778,1.8934657777778-2.0059386666667,2.8813617777778c-0.73906933333333,1.1616826666667-1.2055555555556,2.4469013333333-1.5389671111111,3.7778097777778c-0.18891475555555,0.75924177777778-0.44181448888889,1.5002026666667-0.58175351111111,2.2639991111111c-0.12304693333333,0.67235466666666-0.22227457777778,1.3447031111111-0.38098977777778,2.0124408888889c-0.13489591111111,0.56255235555555-0.17651884444444,1.157128-0.21267368888889,1.7379662222222c-0.042534737777778,0.681464-0.024244764444444,1.3674888888889-0.051710088888889,2.0489591111111c-0.019201404444444,0.48939208888889-0.018289911111111,0.98790222222222-0.1147832,1.4589991111111c-0.43452266666667,2.1267368888889-0.38694444444444,4.2763217777778-0.347144,6.4213333333333c0.034331608888889,1.8568853333333,0.12626755555556,3.7092097777778,0.18113697777778,5.5615342222222c0.01737848,0.58539911111111,0.031111111111111,1.1707982222222,0.13538186666667,1.7516426666667c0.069088444444444,0.37959226666667,0.084644,0.77291822222222,0.11484355555556,1.1616826666667c0.074557155555555,0.97416355555555,0.10888888888889,1.9529502222222,0.2250696,2.9225591111111c0.11569475555556,0.96505422222222,0.44497413333333,1.8980826666667,0.54012995555555,2.8722462222222c0.027890613333333,0.2881424,0.12347253333333,0.5762848,0.23418391111111,0.84158044444444c0.22367208888889,0.54426213333333,0.48301244444444,1.06568,0.71992977777778,1.6007662222222c0.20033875555555,0.45281226666667,0.46374968888889,0.85986755555555,0.82967111111111,1.1937644444444c0.57719635555555,0.52597191111111,1.1489208888889,1.0610568888889,1.7380284444444,1.5733013333333c0.52001724444444,0.45281226666667,1.1178097777778,0.79126755555555,1.7659226666667,1.0199217777778c0.64348977777778,0.22409706666667,1.300712,0.41617208888889,1.9615804444444,0.58995688888889c0.38281226666667,0.10062515555556,0.785736,0.054869795555555,1.1461271111111-0.10980044444444c0.53374968888889-0.24238728888889,1.0396088888889-0.54426213333333,1.5756657777778-0.77753511111111c0.4509288-0.19669253333333,0.93801244444444-0.25611973333333,1.4333573333333-0.19663217777778c0.30594604444444,0.036579884444444,0.58582471111111,0.17834195555555,0.73311466666666,0.42534737777778z M113.71158222222,20.978284444444c0.30503448888889,0.27440995555555,0.47523466666666,0.5994968,0.47110248888889,1.0202888888889c-0.0050434035555555,0.43452266666667-0.23509546666667,0.7364-0.55477457777778,0.97422577777777c-0.15318551111111,0.1143576-0.34118933333333,0.20125031111111-0.52688346666666,0.25156257777778c-1.1370115555556,0.2881424-2.2818071111111,0.53052968888889-3.4613537777778,0.57166666666666c-0.4875696,0.018289911111111-0.97374044444444,0.054869795555555-1.439312,0.233212c-0.23096328888889,0.091449866666666-0.53648435555555,0.42072924444444-0.53374968888889,0.64482755555555c0.014157982222222,1.3674888888889-0.082820888888889,2.7304231111111,0.074982755555555,4.0979182222222c0.044843742222222,0.38420977777778,0.056753448888889,0.77753511111111,0.053107662222222,1.1708604444444c-0.020598977777778,2.053576,0.13355875555556,4.1025351111111,0.34027777777778,6.1423786666666c0.19711813333333,1.9483955555555,0.22822924444444,3.9059004444444,0.28540773333333,5.8588568888889c0.048914942222222,1.6602506666667,0.041137164444444,3.3205013333333,0.054869795555555,4.9853128888889c0.016892337777778,2.0489591111111,0.010026053333333,4.1025351111111,0.21540773333333,6.1469333333333c0.029288186666667,0.2881424,0.0027343742222222,0.58539911111111-0.021510408888889,0.87809866666666c-0.15731768888889,1.8523244444444-0.17469635555555,3.7046551111111,0.046180586666666,5.5569795555555c0.11660568888889,0.97878666666666,0.12025191111111,1.9438346666667-0.086041511111111,2.9180044444444c-0.078689333333333,0.37047733333333-0.07,0.78665066666666-0.000911456,1.1616826666667c0.23096328888889,1.2577537777778,0.29318551111111,2.5200622222222,0.29045146666667,3.7915422222222c-0.0023090293333333,1.0747893333333,0.081363022222222,2.1495848888889,0.1481424,3.2243742222222c0.024244764444444,0.38420977777778,0.084644,0.77753511111111,0.17293422222222,1.157128c0.096978933333333,0.41617208888889-0.059001724444444,0.75462488888889-0.22774328888889,1.1068151111111c-0.1737848,0.36592017777778-0.40796871111111,0.65862222222222-0.78348977777777,0.827848c-0.26711813333333,0.12347253333333-0.5168576,0.29269955555555-0.793576,0.37503448888889c-0.37916666666667,0.11891475555556-0.76611111111111,0.1143576-1.1183013333333-0.13264782222222c-0.32520817777778-0.22409706666667-0.59414942222222-0.49850702222222-0.80409155555555-0.83696355555555c-0.20993902222222-0.33389751111111-0.36774328888889-0.69520266666666-0.39289911111111-1.0930826666667c-0.030625031111111-0.48483493333333-0.013246551111111-0.97422577777777-0.024244764444444-1.4636222222222c-0.050312515555555-2.1495848888889-0.10518231111111-4.2991697777778-0.15367208888889-6.4487733333333c-0.010998275555556-0.48939208888889-0.0077777777777777-0.97878666666666-0.0027343742222222-1.4681768888889c0.025156257777778-2.4423466666667,0.053533013333333-4.8846871111111,0.086892088888889-7.9078844444444c0.089626755555555-1.8660568888889,0.000911456-4.3084035555555-0.037065964444444-6.7507377777778c-0.033359386666667-2.1542017777778-0.040651022222222-4.3037866666667-0.046119795555555-6.4533777777778c-0.0036458364444444-1.4681146666667-0.059427075555555-2.9316746666667-0.25423626666667-4.3860568888889c-0.13033875555556-0.97416355555555-0.17147573333333-1.9483333333333-0.16783013333333-2.92712c0.0032204853333333-0.78208977777777,0.0046180586666667-1.5641857777778-0.029227457777778-2.3462755555555c-0.075894311111111-1.7562595555555-0.10609386666667-3.5170737777778-0.50677075555555-5.2459306666666c-0.10973946666667-0.47110248888889-0.063558755555555-0.96960888888889-0.22227457777778-1.4452666666667c-0.080025866666666-0.23783013333333-0.41070337777778-0.54881928888889-0.62751111111111-0.51679662222222c-0.67460088888889,0.10062515555556-1.3473786666667,0.21498275555555-2.0247111111111,0.2881424c-0.38554693333333,0.036579884444444-0.77935822222222,0.0045572924444444-1.1690373333333-0.0046180586666667c-0.31056417777778-0.0091753511111111-0.56394986666666-0.17840293333333-0.76611111111111-0.38420977777778c-0.34532088888889-0.35674488888889-0.57537324444444-0.77753511111111-0.63802044444444-1.2852186666667c-0.074982755555555-0.61286462222222,0.21589431111111-1.1616826666667,0.79673688888889-1.4132471111111c0.17700542222222-0.077777777777778,0.36452266666667-0.16011271111111,0.55295146666666-0.17384577777778c0.387856-0.036579884444444,0.77887288888889-0.036579884444444,1.1689751111111-0.045755235555555c1.0747893333333-0.022847253333333,2.1500702222222-0.027404533333333,3.2244364444444-0.059427075555555c0.97738666666666-0.027465262222222,1.9524648888889-0.068602488888889,2.9074328888889-0.32472222222222c0.37503448888889-0.10062515555556,0.77066577777778-0.13720497777778,1.1589511111111-0.1737848c0.97465511111111-0.096068,1.9406177777778-0.22415804444444,2.8827617777778-0.50774328888889c0.27671902222222-0.082334933333333,0.57768231111111-0.091510222222222,0.86904533333333-0.12353288888889c0.61881928888889-0.073159644444444,1.1525671111111,0.11891475555556,1.6131608888889,0.53508684444444z M122.85205777778,69.948106666666c0.010269093333333,1.248576,0.070607911111111,2.4973324444444,0.085251911111111,3.7459084444444c0.0048611111111111,0.41161431111111-0.059366346666666,0.82778577777777-0.0984984,1.2393982222222c-0.021267368888889,0.22409706666667-0.36768231111111,0.55799457777778-0.59360248888889,0.61286462222222c-0.59560791111111,0.14176213333333-1.1629022222222,0.086892088888889-1.6989591111111-0.23327235555555c-0.17019955555555-0.10062515555556-0.33341155555555-0.21498275555555-0.4997832-0.32472222222222c-0.35662355555555-0.23783013333333-0.554288-0.59913217777778-0.59323786666666-1.0199217777778c-0.047578097777778-0.51679662222222-0.044661431111111-1.0382088888889-0.033116346666667-1.5596248888889c0.046241315555555-2.076424,0.10420977777778-4.1574026666667,0.14960088888889-5.92284c0.0010329884444444-2.9180044444444-0.10676213333333-5.5203991111111-0.17414942222222-8.1182577777777c-0.0080816088888889-0.31098977777778-0.018289911111111-0.635712-0.093151022222222-0.93296622222222c-0.30710088888889-1.2211733333333-0.31311653333333-2.4697493333333-0.34629342222222-3.7183253333333c-0.049826373333333-1.8706177777778-0.068237866666666-3.7457902222222-0.11399297777778-5.616408c-0.043203128888889-1.769992-0.043932311111111-3.5354231111111-0.33395848888889-5.2916826666666c-0.11769955555556-0.70893511111111-0.10184035555556-1.4498897777778-0.11703128888889-2.177112c-0.04338544-2.0809786666667-0.0651392-4.1619635555555-0.10797733333333-6.2429422222222c-0.029956577777778-1.4589991111111-0.050616346666666-2.9133875555555-0.38080746666667-4.3449217777778c-0.11539048888889-0.49850702222222-0.1212848-1.0290373333333-0.15136302222222-1.5504533333333c-0.072187733333333-1.2440213333333-0.17323786666667-2.4925973333333-0.17852426666667-3.7366124444444c-0.0044357662222222-1.0473866666667-0.24056417777778-2.0627537777778-0.25296008888889-3.1055235555555c-0.0038888888888889-0.32472222222222,0.1493576-0.60830746666666,0.38384577777778-0.80038311111111c0.23029502222222-0.18751724444444,0.4977168-0.32927937777778,0.76435022222222-0.45275191111111c0.87177688888889-0.41161431111111,1.7744284444444-0.12802968888889,2.3093342222222,0.72722222222222c0.10548595555556,0.16922764444444,0.17287324444444,0.37047733333333,0.22409706666667,0.56716986666666c0.051588568888889,0.19669253333333,0.081058755555555,0.40705715555555,0.084887288888889,0.61286462222222c0.0078385688888889,0.41617208888889,0.0041927075555555,0.83234666666666-0.01737848,1.2485137777778c-0.03080728,0.59001724444444-0.046605875555555,4.3084035555555-0.016649297777778,4.957848c0.0911456,1.9757982222222,0.27125031111111,3.9424808888889,0.25204853333333,5.92284c-0.0040104151111111,0.41617208888889,0.011666666666667,0.83696355555555,0.087621333333333,1.2440213333333c0.21255235555555,1.1296631111111,0.22567688888889,2.2730524444444,0.247856,3.416448c0.070546933333333,3.6451644444444,0.15033013333333,7.2857866666666,0.23236142222222,10.926408888889c0.011666666666667,0.51679662222222,0.011362835555556,1.0427697777778,0.092847377777777,1.555008c0.21431448888889,1.3354693333333,0.25229182222222,2.689288,0.34252586666667,4.0384897777778s0.16989591111111,2.6984035555555,0.3329256,4.0430444444444c0.17506097777778,1.440712,0.2095744,2.8997111111111,0.20562515555555,4.3587164444444c-0.0054687484444444,1.9803528888889-0.010086782222222,3.9561573333333,0.0062586844444444,5.9319555555555z M147.41935111111,24.111235555555c0.016953128888889,0.49394986666666,0.010208302222222,0.99221422222222-0.0972832,1.4816044444444c-0.46739591111111,2.1359084444444-0.81818488888889,4.2901102222222-1.0281226666667,6.4671911111111c-0.047578097777778,0.49394986666666-0.11344604444444,0.98790222222222-0.21085057777778,1.4727315555556c-0.15689208888889,0.78208977777777-0.29683173333333,1.5641857777778-0.31694444444444,2.360008c-0.0050434035555555,0.20125031111111-0.0041319413333333,0.4025-0.047152746666667,0.5945744c-0.32794284444444,1.4589991111111-0.54335057777778,2.92712-0.59597191111111,4.4226995555555c-0.010512133333333,0.29269955555555-0.1147832,0.58539911111111-0.19164942222222,0.873544c-0.35765644444444,1.3446471111111-0.42716986666667,2.7441555555555-0.77158044444444,4.0933573333333c-0.096978933333333,0.37959226666667-0.090112711111111,0.79120533333333-0.11296008888889,1.1890915555556c-0.046180586666666,0.79126755555555-0.12985217777778,1.5825351111111-0.30138888888889,2.3600702222222c-0.10609386666667,0.48483493333333-0.16691857777778,0.98334133333333-0.20671902222222,1.4772924444444c-0.088290222222222,1.0930826666667-0.32794284444444,2.1541395555555-0.51090293333333,3.2334897777778c-0.16558142222222,0.97416355555555-0.11982631111111,1.9940915555555-0.31834195555555,2.9591395555555c-0.30187484444444,1.4727315555556-0.41440995555555,2.950024-0.47110248888889,4.4410488888889c-0.022847253333333,0.5945744-0.083672088888889,1.1937084444444-0.20118933333333,1.7745466666667c-0.236432,1.1754151111111-0.34939208888889,2.360008-0.41203991111111,3.5537164444444c-0.021024328888889,0.39332471111111-0.032447893333333,0.79582222222222-0.091935822222222,1.1845928888889c-0.28401022222222,1.8660568888889-0.57579884444444,3.73212-0.88174488888889,5.59356c-0.083672088888889,0.50768231111111-0.38506097777778,0.896448-0.78707377777777,1.2120577777778c-0.39423626666667,0.306432-0.81636177777777,0.54426213333333-1.3148675555556,0.60830746666666c-0.1920744,0.022847253333333-0.40019093333333,0.063984355555555-0.58132791111111,0.018229182222222c-0.85118133333333-0.21498275555555-1.7082551111111-0.41623244444444-2.4903448888889-0.85075822222222c-0.37138888888889-0.20580746666667-0.56619795555555-0.53508684444444-0.66955466666666-0.92385688888889c-0.050312515555555-0.1920744-0.082334933333333-0.39788186666667-0.063133777777778-0.58995688888889c0.11940133333333-1.20288-0.040225671111111-2.3874728888889-0.24925351111111-3.5583333333333c-0.24420977777778-1.3674888888889-0.30594604444444-2.7670035555555-0.72491377777778-4.1025351111111c-0.058515644444444-0.18751724444444-0.085494577777777-0.39332471111111-0.097404533333333-0.59001724444444c-0.10566826666667-1.7882791111111-0.51594604444444-3.5354231111111-0.67101688888889-5.3191475555555c-0.043020817777778-0.49394986666666-0.093758933333333-0.99707377777777-0.21358524444444-1.4727315555556c-0.17062515555555-0.681464-0.23509546666667-1.372112-0.26754311111111-2.0673084444444c-0.069088444444444-1.4910248888889-0.16880204444444-2.9774328888889-0.49443582222222-4.436432c-0.085981155555555-0.38876755555555-0.10609386666667-0.79126755555555-0.15731768888889-1.1845928888889c-0.42212675555555-3.2746871111111-0.88545333333333-5.2504853333333-1.5737866666667-7.8757155555555c-0.30138888888889-1.1479502222222-0.65449066666666-2.2822302222222-0.84474133333333-3.4668231111111c-0.17287324444444-1.0793502222222-0.47474808888889-2.1267368888889-0.63346577777778-3.2152586666667c-0.15640613333333-1.0747893333333-0.4769968-2.1267368888889-0.74909955555555-3.1786782222222c-0.1733592-0.67690933333333-0.39976533333333-1.3355315555556-0.58272542222222-2.0032631111111c-0.10427075555556-0.38420977777778-0.21358524444444-0.77298044444444-0.24287324444444-1.1617448888889c-0.082760533333333-1.0976995555556-0.38597191111111-2.1542017777778-0.54924488888889-3.2289911111111c-0.14862835555556-0.98790222222222-0.36494764444444-1.9529502222222-0.60368933333333-2.9180044444444c-0.047092017777778-0.18751724444444-0.054383653333333-0.39332471111111-0.057118071111111-0.59001724444444c-0.0063802044444444-0.41617208888889,0.10475671111111-0.78665066666666,0.47565964444444-1.0153048888889c0.24973946666667-0.15093742222222,0.51363697777778-0.29269955555555,0.788536-0.38414942222222c0.17427075555555-0.059427075555555,0.39976533333333-0.073159644444444,0.56808142222222-0.00911456c0.36494764444444,0.13264782222222,0.73542311111111,0.2881424,1.0537644444444,0.51223946666666c0.49850702222222,0.34301244444444,0.821408,0.84151822222222,0.92111911111111,1.46356c0.047578097777778,0.29269955555555,0.077291822222222,0.58995688888889,0.083246488888889,0.88721422222222c0.035668391111111,1.701392,0.36865422222222,3.3570195555555,0.68104088888889,5.0172764444444c0.16509546666667,0.87816088888889,0.41301244444444,1.7380284444444,0.67004622222222,2.5932791111111c0.48708302222222,1.6190533333333,0.83514044444444,3.2655715555555,1.0615422222222,4.9441155555555c0.18611973333333,1.3812213333333,0.51819413333333,2.7258684444444,1.0619715555556,4.0156417777778c0.38603288888889,0.91474133333333,0.58819413333333,1.8889048888889,0.84200355555555,2.8493422222222c0.58497413333333,2.2090693333333,0.90969511111111,4.4730124444444,1.3812213333333,6.7049422222222c0.081848977777777,0.38420977777778,0.074557155555555,0.79126755555555,0.12304693333333,1.1845928888889c0.084583644444444,0.69064177777778,0.11982631111111,1.3949537777778,0.28631928888889,2.0626915555555c0.21723084444444,0.87816088888889,0.31238728888889,1.7608764444444,0.35583333333333,2.6527075555555c0.048489591111111,0.99707377777777,0.14862835555556,1.9804151111111,0.33979182222222,2.9592017777778c0.20945306666667,1.0747893333333,0.21127617777778,2.1770497777778,0.48203991111111,3.2427235555555c0.050737866666666,0.20125031111111,0.13398435555556,0.37503448888889,0.29494764444444,0.50312515555555c0.072734666666666,0.054869795555555,0.16102426666667,0.10062515555556,0.24931448888889,0.12809004444444c0.18751724444444,0.059427075555555,0.33845466666667-0.041197893333333,0.38420977777778-0.28820337777778c0.070911555555555-0.39332471111111,0.125356-0.78665066666666,0.16558142222222-1.179976c0.21631928888889-2.1267368888889,0.53052968888889-4.2672062222222,0.98790222222222-6.7781777777778c0.0887152-0.48939208888889,0.13762995555556-0.98334133333333,0.20574648888889-1.4772924444444c0.096068-0.68602488888889,0.16697893333333-1.3812213333333,0.29640613333333-2.0626915555555c0.13033875555556-0.68602488888889,0.23509546666667-1.3720497777778,0.2620744-2.0672462222222c0.026979182222222-0.69975733333333,0.15276053333333-1.3812213333333,0.27532088888889-2.0672462222222c0.41896711111111-2.3462755555555,0.89280177777777-4.6788186666667,1.2655315555556-7.0342222222222c0.077777777777778-0.48939208888889,0.13222222222222-0.98334133333333,0.1880032-1.4772924444444c0.110712-0.98790222222222,0.18891475555555-1.9803528888889,0.4765712-2.9407902222222c0.26298595555555-1.9666826666667,0.73226844444444-3.9013457777778,0.79813066666666-5.899992c0.025581608888889-0.79120533333333,0.19067688888889-1.577856,0.31688346666667-2.3645066666667c0.15780364444444-0.98334133333333,0.24560791111111-1.9712435555555,0.22409706666667-2.5246791111111c-0.043932311111111-0.84151822222222-0.089687733333333-1.2348435555556-0.077777777777778-1.6327235555555c0.0091753511111111-0.29725671111111,0.12262133333333-0.59451404444444,0.33256097777778-0.80487555555555c0.681464-0.69064177777778,1.8308142222222-0.86898311111111,2.6536222222222-0.14638026666667c0.54104151111111,0.47565964444444,0.88636177777777,1.0519413333333,0.91200355555555,1.7974568888889z M156.07872444444,69.948106666666c0.010269093333333,1.248576,0.070607911111111,2.4973324444444,0.085251911111111,3.7459084444444c0.0048611111111111,0.41161431111111-0.059366346666666,0.82778577777777-0.0984984,1.2393982222222c-0.021267368888889,0.22409706666667-0.36768231111111,0.55799457777778-0.59360248888889,0.61286462222222c-0.59560791111111,0.14176213333333-1.1629022222222,0.086892088888889-1.6989591111111-0.23327235555555c-0.17019955555555-0.10062515555556-0.33341155555555-0.21498275555555-0.4997832-0.32472222222222c-0.35662355555555-0.23783013333333-0.554288-0.59913217777778-0.59323786666666-1.0199217777778c-0.047578097777778-0.51679662222222-0.044661431111111-1.0382088888889-0.033116346666667-1.5596248888889c0.046241315555555-2.076424,0.10420977777778-4.1574026666667,0.14960088888889-5.92284c0.0010329884444444-2.9180044444444-0.10676213333333-5.5203991111111-0.17414942222222-8.1182577777777c-0.0080816088888889-0.31098977777778-0.018289911111111-0.635712-0.093151022222222-0.93296622222222c-0.30710088888889-1.2211733333333-0.31311653333333-2.4697493333333-0.34629342222222-3.7183253333333c-0.049826373333333-1.8706177777778-0.068237866666666-3.7457902222222-0.11399297777778-5.616408c-0.043203128888889-1.769992-0.043932311111111-3.5354231111111-0.33395848888889-5.2916826666666c-0.11769955555556-0.70893511111111-0.10184035555556-1.4498897777778-0.11703128888889-2.177112c-0.04338544-2.0809786666667-0.0651392-4.1619635555555-0.10797733333333-6.2429422222222c-0.029956577777778-1.4589991111111-0.050616346666666-2.9133875555555-0.38080746666667-4.3449217777778c-0.11539048888889-0.49850702222222-0.1212848-1.0290373333333-0.15136302222222-1.5504533333333c-0.072187733333333-1.2440213333333-0.17323786666667-2.4925973333333-0.17852426666667-3.7366124444444c-0.0044357662222222-1.0473866666667-0.24056417777778-2.0627537777778-0.25296008888889-3.1055235555555c-0.0038888888888889-0.32472222222222,0.1493576-0.60830746666666,0.38384577777778-0.80038311111111c0.23029502222222-0.18751724444444,0.4977168-0.32927937777778,0.76435022222222-0.45275191111111c0.87177688888889-0.41161431111111,1.7744284444444-0.12802968888889,2.3093342222222,0.72722222222222c0.10548595555556,0.16922764444444,0.17287324444444,0.37047733333333,0.22409706666667,0.56716986666666c0.051588568888889,0.19669253333333,0.081058755555555,0.40705715555555,0.084887288888889,0.61286462222222c0.0078385688888889,0.41617208888889,0.0041927075555555,0.83234666666666-0.01737848,1.2485137777778c-0.03080728,0.59001724444444-0.046605875555555,4.3084035555555-0.016649297777778,4.957848c0.0911456,1.9757982222222,0.27125031111111,3.9424808888889,0.25204853333333,5.92284c-0.0040104151111111,0.41617208888889,0.011666666666667,0.83696355555555,0.087621333333333,1.2440213333333c0.21255235555555,1.1296631111111,0.22567688888889,2.2730524444444,0.247856,3.416448c0.070546933333333,3.6451644444444,0.15033013333333,7.2857866666666,0.23236142222222,10.926408888889c0.011666666666667,0.51679662222222,0.011362835555556,1.0427697777778,0.092847377777777,1.555008c0.21431448888889,1.3354693333333,0.25229182222222,2.689288,0.34252586666667,4.0384897777778s0.16989591111111,2.6984035555555,0.3329256,4.0430444444444c0.17506097777778,1.440712,0.2095744,2.8997111111111,0.20562515555555,4.3587164444444c-0.0054687484444444,1.9803528888889-0.010086782222222,3.9561573333333,0.0062586844444444,5.9319555555555z M175.98638222222,71.164663111111c0.25016506666667,0.41161431111111,0.44126755555555,0.86424177777777,0.62878666666666,1.3170577777778c0.12304693333333,0.29269955555555,0.016466986666667,0.5762848-0.18156257777778,0.80493777777777c-0.18982631111111,0.21953991111111-0.39198755555555,0.44363697777778-0.62981955555555,0.60368933333333c-0.81684711111111,0.54426213333333-1.7484817777778,0.85986755555555-2.6549537777778,1.2166124444444c-0.26711813333333,0.10518231111111-0.57081608888889,0.13264782222222-0.86078222222222,0.16011271111111c-0.98376444444444,0.082334933333333-1.9287084444444-0.045755235555555-2.8809386666667-0.35674488888889c-1.4201102222222-0.4619272-2.6842417777778-1.1525671111111-3.7933653333333-2.145024c-0.65539911111111-0.58539911111111-1.3103128888889-1.1707982222222-1.9606657777778-1.7608142222222c-0.361788-0.32927937777778-0.67417777777778-0.69975733333333-0.98012444444444-1.0839671111111c-1.1209706666667-1.4041315555556-1.7942337777778-3.0186302222222-2.1935137777778-4.742864c-0.32976533333333-1.4269795555556-0.61881928888889-2.8630746666667-0.66135377777778-4.3403671111111c-0.033845466666667-1.1708604444444-0.11982631111111-2.33716-0.18156257777778-3.5080204444444c-0.025642337777778-0.48939208888889-0.0077777777777777-0.98334133333333-0.080025866666666-1.46356c-0.29227457777778-1.9392177777778-0.25247413333333-3.8967288888889-0.28401022222222-5.6438728888889c-0.019687484444444-2.1587564444444-0.015555555555555-4.107152,0.2584288-6.0509306666666c0.10840293333333-0.77291822222222,0.084644-1.5595688888889,0.11210951111111-2.3416586666667c0.058090293333333-1.6602506666667,0.14455715555556-3.3158844444444,0.59870657777778-4.9303831111111c0.10475671111111-0.37047733333333,0.12073786666667-0.76835733333333,0.18065102222222-1.157128c0.029713537777778-0.1920744,0.044783013333333-0.38876755555555,0.10287324444444-0.5762848c0.67095466666666-2.1404693333333,1.2874648888889-4.3037866666667,2.4798355555555-6.2384622222222c1.1855013333333-1.9209306666667,2.5676373333333-3.6863617777778,4.2813617777778-5.1727697777778c0.59730906666666-0.51679662222222,1.2879502222222-0.88727644444444,2.0343742222222-1.1296631111111c0.55477457777778-0.17834195555555,1.1333653333333-0.29725671111111,1.7091697777778-0.39788186666667c0.28176213333333-0.050312515555555,0.58770817777778-0.036579884444444,0.87080622222222,0.018289911111111c0.67235466666666,0.11891475555556,1.3382631111111,0.27440995555555,2.0050862222222,0.42534737777778c0.57537324444444,0.13264782222222,1.1232791111111,0.35674488888889,1.6323004444444,0.64032888888889c0.61468773333333,0.34301244444444,1.0299457777778,0.86442844444444,1.2115102222222,1.5733573333333c0.076866222222222,0.30187484444444-0.16369795555555,0.82328711111111-0.49759546666666,0.96967111111111c-0.54881928888889,0.24700542222222-1.1323946666667,0.31105013333333-1.7150622222222,0.19669253333333c-0.66864622222222-0.13720497777778-1.32356-0.33845466666667-1.9894684444444-0.49394986666666c-0.48617208888889-0.10973946666667-0.96365422222222-0.050312515555555-1.4351804444444,0.12347253333333c-1.3236222222222,0.49394986666666-2.3778097777778,1.3538186666667-3.2261973333333,2.4515182222222c-0.71622133333333,0.92385688888889-1.3770897777778,1.8934657777778-2.0059386666667,2.8813617777778c-0.73906933333333,1.1616826666667-1.2055555555556,2.4469013333333-1.5389671111111,3.7778097777778c-0.18891475555555,0.75924177777778-0.44181448888889,1.5002026666667-0.58175351111111,2.2639991111111c-0.12304693333333,0.67235466666666-0.22227457777778,1.3447031111111-0.38098977777778,2.0124408888889c-0.13489591111111,0.56255235555555-0.17651884444444,1.157128-0.21267368888889,1.7379662222222c-0.042534737777778,0.681464-0.024244764444444,1.3674888888889-0.051710088888889,2.0489591111111c-0.019201404444444,0.48939208888889-0.018289911111111,0.98790222222222-0.1147832,1.4589991111111c-0.43452266666667,2.1267368888889-0.38694444444444,4.2763217777778-0.347144,6.4213333333333c0.034331608888889,1.8568853333333,0.12626755555556,3.7092097777778,0.18113697777778,5.5615342222222c0.01737848,0.58539911111111,0.031111111111111,1.1707982222222,0.13538186666667,1.7516426666667c0.069088444444444,0.37959226666667,0.084644,0.77291822222222,0.11484355555556,1.1616826666667c0.074557155555555,0.97416355555555,0.10888888888889,1.9529502222222,0.2250696,2.9225591111111c0.11569475555556,0.96505422222222,0.44497413333333,1.8980826666667,0.54012995555555,2.8722462222222c0.027890613333333,0.2881424,0.12347253333333,0.5762848,0.23418391111111,0.84158044444444c0.22367208888889,0.54426213333333,0.48301244444444,1.06568,0.71992977777778,1.6007662222222c0.20033875555555,0.45281226666667,0.46374968888889,0.85986755555555,0.82967111111111,1.1937644444444c0.57719635555555,0.52597191111111,1.1489208888889,1.0610568888889,1.7380284444444,1.5733013333333c0.52001724444444,0.45281226666667,1.1178097777778,0.79126755555555,1.7659226666667,1.0199217777778c0.64348977777778,0.22409706666667,1.300712,0.41617208888889,1.9615804444444,0.58995688888889c0.38281226666667,0.10062515555556,0.785736,0.054869795555555,1.1461271111111-0.10980044444444c0.53374968888889-0.24238728888889,1.0396088888889-0.54426213333333,1.5756657777778-0.77753511111111c0.4509288-0.19669253333333,0.93801244444444-0.25611973333333,1.4333573333333-0.19663217777778c0.30594604444444,0.036579884444444,0.58582471111111,0.17834195555555,0.73311466666666,0.42534737777778z"></path></svg>
</defs><use id="SvgjsUse1046" xlink:href="#t1491246067290" fill="#19a3b1" x="81.58643341064453" y="89.16301155090332"></use><use id="SvgjsUse1047" xlink:href="#a1491246067290" fill="#19a3b1" x="120" y="0" transform="matrix(1.9603252410888672,0,0,1.9603252410888672,-172.8585433959961,-132.20254143414058)"></use></svg>